<?xml version="1.0" encoding="UTF-8"?>
<svg id="Capa_1" xmlns="http://www.w3.org/2000/svg" version="1.1" xmlns:xlink="http://www.w3.org/1999/xlink" viewBox="0 0 108.5 42">
  <!-- Generator: Adobe Illustrator 29.8.3, SVG Export Plug-In . SVG Version: 2.1.1 Build 3)  -->
  <defs>
    <style>
      .st0 {
        fill: url(#Degradado_sin_nombre_311);
      }

      .st1 {
        fill: #fff;
      }

      .st2 {
        stroke: url(#Nueva_muestra_de_degradado_1);
      }

      .st2, .st3 {
        fill: none;
        stroke-width: .5px;
      }

      .st3 {
        stroke: url(#Nueva_muestra_de_degradado_11);
      }

      .st4 {
        fill: url(#Degradado_sin_nombre_31);
      }
    </style>
    <linearGradient id="Nueva_muestra_de_degradado_1" data-name="Nueva muestra de degradado 1" x1="27.5" y1="36.4" x2="9.6" y2="5.4" gradientUnits="userSpaceOnUse">
      <stop offset="0" stop-color="#fff"/>
      <stop offset="1" stop-color="#fff" stop-opacity=".1"/>
    </linearGradient>
    <linearGradient id="Nueva_muestra_de_degradado_11" data-name="Nueva muestra de degradado 1" x1="24.3" y1="35.2" x2="19.2" y2="26.3" xlink:href="#Nueva_muestra_de_degradado_1"/>
    <linearGradient id="Degradado_sin_nombre_31" data-name="Degradado sin nombre 31" x1="18.5" y1="41.3" x2="18.5" y2=".5" gradientUnits="userSpaceOnUse">
      <stop offset="0" stop-color="#2c32fe"/>
      <stop offset=".5" stop-color="#00a4af"/>
      <stop offset="1" stop-color="#00ff97"/>
    </linearGradient>
    <linearGradient id="Degradado_sin_nombre_311" data-name="Degradado sin nombre 31" x1="21.9" y1="36.1" x2="21.9" y2="25.3" xlink:href="#Degradado_sin_nombre_31"/>
  </defs>
  <g>
    <path class="st2" d="M35.5,10.7l-3.3-1.9-.8-.5-3.5-2.1h0s0,0,0,0l-2.3-1.4-.8-.5-6.3-3.8L1.6,10.7h0v20.4l3.5,2.1h.2c0,.1.5.5.5.5h0l6.6,4v-.8h0v-16.4l6.2,3.5,6.4-3.6v16.2l-6,3.6v-7.7c.6-.2,1-.7,1-1.4s-.6-1.4-1.4-1.4-1.4.6-1.4,1.4.4,1.2,1,1.4v7.7l-2.4-1.4v-11c.6-.2,1-.7,1-1.4s-.6-1.4-1.4-1.4-1.4.6-1.4,1.4.4,1.2,1,1.4v11.5l3.1,1.9.4.2.4-.2,9.8-5.9v-8.7l6-3.4h0s0,5,0,5v2.6l-2.5,1.5v-2.7h0c.6-.2,1-.8,1-1.4s0,0,0,0c0-.8-.7-1.4-1.4-1.4s-1.4.6-1.4,1.4.3.9.7,1.2c.1,0,.2.1.4.2v4.1l.8-.5,3.2-1.9v-13.6l-.8.4h0s0,0,0,0l-3.1,1.7-2.9,1.6v-3.1l6-3.4h0s.8-.4.8-.4h0v-3.8ZM14.8,26.4c0-.4.3-.6.6-.6s.6.3.6.6-.3.6-.6.6-.6-.3-.6-.6ZM18.5,31.8c-.4,0-.6-.3-.6-.6s.3-.6.6-.6.6.3.6.6-.3.6-.6.6ZM31.9,28.7c-.4,0-.6-.3-.6-.6s.3-.6.6-.6.6.3.6.6-.3.6-.6.6ZM2.3,30.7v-7.6h0s0-.9,0-.9v-11.1h0s2.6,1.5,2.6,1.5h0v19.7l-2.7-1.6ZM8.3,14.2v20l-2.5-1.5V12.2l-2.6-1.5,2.5-1.5,12.9,7.2,10-5.6.5-.3.3-.2-.8-.4-2.8-1.6-.8-.5-.8.4-4.7,2.8c-.2-.2-.6-.4-.9-.4-.7,0-1.3.6-1.3,1.3s.6,1.3,1.3,1.3,1.3-.6,1.3-1.3,0-.2,0-.2l5.1-3,2.7,1.6-9.2,5.1-12.2-6.8L18.5,1.4l2.5,1.5-7.9,4.7c-.2-.2-.6-.4-.9-.4-.7,0-1.3.6-1.3,1.3s.6,1.3,1.3,1.3,1.3-.6,1.3-1.3,0-.2,0-.2l8.3-4.9,2.4,1.4-5.8,3.4.7.4,5.8-3.3,2.3,1.4.8.5,2.8,1.7.8.5,2.5,1.5-5.9,3.3h0s-9.4,5.3-9.4,5.3l-10.2-5.7v.7ZM19.2,12c0,.3-.3.6-.6.6s-.6-.3-.6-.6.3-.6.6-.6.6.3.6.6ZM12.7,8.5c0,.3-.3.6-.6.6s-.6-.3-.6-.6.3-.6.6-.6.6.3.6.6ZM24.9,19.5l-6.4,3.6-6.2-3.5-.8-.4v17.1l-2.5-1.5V14.9l2.6,1.4.7.4,6.2,3.5,6.4-3.6v2.9ZM34.7,14l-6,3.4-.8.4v4.9l.8-.4,6-3.4v3.3l-6,3.4-.8.4v8.7h0l-2.3,1.4v-19.9l2.3-1.3.8-.4,6-3.4h0v2.9Z"/>
    <path class="st3" d="M21.5,25.3v7.9c-.6.2-1,.7-1,1.4s.6,1.4,1.4,1.4,1.4-.6,1.4-1.4-.4-1.2-1-1.4v-7.9h-.8ZM22.5,34.6c0,.4-.3.6-.6.6s-.6-.3-.6-.6.3-.6.6-.6.6.3.6.6Z"/>
  </g>
  <g>
    <path class="st4" d="M35.5,10.7l-3.3-1.9-.8-.5-3.5-2.1h0s0,0,0,0l-2.3-1.4-.8-.5-6.3-3.8L1.6,10.7h0v20.4l3.5,2.1h.2c0,.1.5.5.5.5h0l6.6,4v-.8h0v-16.4l6.2,3.5,6.4-3.6v16.2l-6,3.6v-7.7c.6-.2,1-.7,1-1.4s-.6-1.4-1.4-1.4-1.4.6-1.4,1.4.4,1.2,1,1.4v7.7l-2.4-1.4v-11c.6-.2,1-.7,1-1.4s-.6-1.4-1.4-1.4-1.4.6-1.4,1.4.4,1.2,1,1.4v11.5l3.1,1.9.4.2.4-.2,9.8-5.9v-8.7l6-3.4h0s0,5,0,5v2.6l-2.5,1.5v-2.7h0c.6-.2,1-.8,1-1.4s0,0,0,0c0-.8-.7-1.4-1.4-1.4s-1.4.6-1.4,1.4.3.9.7,1.2c.1,0,.2.1.4.2v4.1l.8-.5,3.2-1.9v-13.6l-.8.4h0s0,0,0,0l-3.1,1.7-2.9,1.6v-3.1l6-3.4h0s.8-.4.8-.4h0v-3.8ZM14.8,26.4c0-.4.3-.6.6-.6s.6.3.6.6-.3.6-.6.6-.6-.3-.6-.6ZM18.5,31.8c-.4,0-.6-.3-.6-.6s.3-.6.6-.6.6.3.6.6-.3.6-.6.6ZM31.9,28.7c-.4,0-.6-.3-.6-.6s.3-.6.6-.6.6.3.6.6-.3.6-.6.6ZM2.3,30.7v-7.6h0s0-.9,0-.9v-11.1h0s2.6,1.5,2.6,1.5h0v19.7l-2.7-1.6ZM8.3,14.2v20l-2.5-1.5V12.2l-2.6-1.5,2.5-1.5,12.9,7.2,10-5.6.5-.3.3-.2-.8-.4-2.8-1.6-.8-.5-.8.4-4.7,2.8c-.2-.2-.6-.4-.9-.4-.7,0-1.3.6-1.3,1.3s.6,1.3,1.3,1.3,1.3-.6,1.3-1.3,0-.2,0-.2l5.1-3,2.7,1.6-9.2,5.1-12.2-6.8L18.5,1.4l2.5,1.5-7.9,4.7c-.2-.2-.6-.4-.9-.4-.7,0-1.3.6-1.3,1.3s.6,1.3,1.3,1.3,1.3-.6,1.3-1.3,0-.2,0-.2l8.3-4.9,2.4,1.4-5.8,3.4.7.4,5.8-3.3,2.3,1.4.8.5,2.8,1.7.8.5,2.5,1.5-5.9,3.3h0s-9.4,5.3-9.4,5.3l-10.2-5.7v.7ZM19.2,12c0,.3-.3.6-.6.6s-.6-.3-.6-.6.3-.6.6-.6.6.3.6.6ZM12.7,8.5c0,.3-.3.6-.6.6s-.6-.3-.6-.6.3-.6.6-.6.6.3.6.6ZM24.9,19.5l-6.4,3.6-6.2-3.5-.8-.4v17.1l-2.5-1.5V14.9l2.6,1.4.7.4,6.2,3.5,6.4-3.6v2.9ZM34.7,14l-6,3.4-.8.4v4.9l.8-.4,6-3.4v3.3l-6,3.4-.8.4v8.7h0l-2.3,1.4v-19.9l2.3-1.3.8-.4,6-3.4h0v2.9Z"/>
    <path class="st0" d="M21.5,25.3v7.9c-.6.2-1,.7-1,1.4s.6,1.4,1.4,1.4,1.4-.6,1.4-1.4-.4-1.2-1-1.4v-7.9h-.8ZM22.5,34.6c0,.4-.3.6-.6.6s-.6-.3-.6-.6.3-.6.6-.6.6.3.6.6Z"/>
  </g>
  <g>
    <path class="st1" d="M49.2,9.9v22h-3.8V9.9h3.8Z"/>
    <path class="st1" d="M58.3,31.9h-3.8V14.5c0-2.9,1.7-4.9,5.3-4.9s4.9,1.6,5.5,4.3l3.1,13.4c.2.8.7,1.2,1.5,1.2s1.3-.5,1.5-1.2l3.1-13.4c.6-2.8,2.2-4.3,5.4-4.3s5.3,2,5.3,4.9v17.5h-3.8V14.7c0-.8-.6-1.4-1.6-1.4s-1.4.5-1.5,1.2l-3.2,13.4c-.7,2.9-2.2,4.4-5.2,4.4s-4.7-1.6-5.3-4.4l-3.1-13.4c-.2-.7-.7-1.2-1.5-1.2s-1.6.6-1.6,1.4v17.3Z"/>
    <path class="st1" d="M107.4,9.9v3.8h-8.9c-3.5,0-4.5,1.7-4.5,3.7v2.1h13.3v3.6h-13.3v8.7h-3.8v-14.4c0-4.4,2.3-7.6,8.1-7.6h9.1Z"/>
  </g>
</svg>